<svg xmlns="http://www.w3.org/2000/svg" xml:space="preserve" xmlns:xlink="http://www.w3.org/1999/xlink" style="max-width: 100%;height: auto;" width="928" height="928" viewBox="0 0 928 928">
<g fill="#000000">
<g transform="translate(320,64) scale(5.4933333333333)"><circle cx="3" cy="3" r="3"></circle></g>
<g transform="translate(352,64) scale(5.4933333333333)"><circle cx="3" cy="3" r="3"></circle></g>
<g transform="translate(416,64) scale(5.4933333333333)"><circle cx="3" cy="3" r="3"></circle></g>
<g transform="translate(480,64) scale(5.4933333333333)"><circle cx="3" cy="3" r="3"></circle></g>
<g transform="translate(512,64) scale(5.4933333333333)"><circle cx="3" cy="3" r="3"></circle></g>
<g transform="translate(544,64) scale(5.4933333333333)"><circle cx="3" cy="3" r="3"></circle></g>
<g transform="translate(576,64) scale(5.4933333333333)"><circle cx="3" cy="3" r="3"></circle></g>
<g transform="translate(320,96) scale(5.4933333333333)"><circle cx="3" cy="3" r="3"></circle></g>
<g transform="translate(352,96) scale(5.4933333333333)"><circle cx="3" cy="3" r="3"></circle></g>
<g transform="translate(384,96) scale(5.4933333333333)"><circle cx="3" cy="3" r="3"></circle></g>
<g transform="translate(448,96) scale(5.4933333333333)"><circle cx="3" cy="3" r="3"></circle></g>
<g transform="translate(480,96) scale(5.4933333333333)"><circle cx="3" cy="3" r="3"></circle></g>
<g transform="translate(512,96) scale(5.4933333333333)"><circle cx="3" cy="3" r="3"></circle></g>
<g transform="translate(576,96) scale(5.4933333333333)"><circle cx="3" cy="3" r="3"></circle></g>
<g transform="translate(320,128) scale(5.4933333333333)"><circle cx="3" cy="3" r="3"></circle></g>
<g transform="translate(352,128) scale(5.4933333333333)"><circle cx="3" cy="3" r="3"></circle></g>
<g transform="translate(384,128) scale(5.4933333333333)"><circle cx="3" cy="3" r="3"></circle></g>
<g transform="translate(480,128) scale(5.4933333333333)"><circle cx="3" cy="3" r="3"></circle></g>
<g transform="translate(512,128) scale(5.4933333333333)"><circle cx="3" cy="3" r="3"></circle></g>
<g transform="translate(352,160) scale(5.4933333333333)"><circle cx="3" cy="3" r="3"></circle></g>
<g transform="translate(384,160) scale(5.4933333333333)"><circle cx="3" cy="3" r="3"></circle></g>
<g transform="translate(480,160) scale(5.4933333333333)"><circle cx="3" cy="3" r="3"></circle></g>
<g transform="translate(512,160) scale(5.4933333333333)"><circle cx="3" cy="3" r="3"></circle></g>
<g transform="translate(352,192) scale(5.4933333333333)"><circle cx="3" cy="3" r="3"></circle></g>
<g transform="translate(384,192) scale(5.4933333333333)"><circle cx="3" cy="3" r="3"></circle></g>
<g transform="translate(448,192) scale(5.4933333333333)"><circle cx="3" cy="3" r="3"></circle></g>
<g transform="translate(480,192) scale(5.4933333333333)"><circle cx="3" cy="3" r="3"></circle></g>
<g transform="translate(544,192) scale(5.4933333333333)"><circle cx="3" cy="3" r="3"></circle></g>
<g transform="translate(576,192) scale(5.4933333333333)"><circle cx="3" cy="3" r="3"></circle></g>
<g transform="translate(320,224) scale(5.4933333333333)"><circle cx="3" cy="3" r="3"></circle></g>
<g transform="translate(352,224) scale(5.4933333333333)"><circle cx="3" cy="3" r="3"></circle></g>
<g transform="translate(384,224) scale(5.4933333333333)"><circle cx="3" cy="3" r="3"></circle></g>
<g transform="translate(416,224) scale(5.4933333333333)"><circle cx="3" cy="3" r="3"></circle></g>
<g transform="translate(480,224) scale(5.4933333333333)"><circle cx="3" cy="3" r="3"></circle></g>
<g transform="translate(512,224) scale(5.4933333333333)"><circle cx="3" cy="3" r="3"></circle></g>
<g transform="translate(576,224) scale(5.4933333333333)"><circle cx="3" cy="3" r="3"></circle></g>
<g transform="translate(320,256) scale(5.4933333333333)"><circle cx="3" cy="3" r="3"></circle></g>
<g transform="translate(384,256) scale(5.4933333333333)"><circle cx="3" cy="3" r="3"></circle></g>
<g transform="translate(448,256) scale(5.4933333333333)"><circle cx="3" cy="3" r="3"></circle></g>
<g transform="translate(512,256) scale(5.4933333333333)"><circle cx="3" cy="3" r="3"></circle></g>
<g transform="translate(576,256) scale(5.4933333333333)"><circle cx="3" cy="3" r="3"></circle></g>
<g transform="translate(320,288) scale(5.4933333333333)"><circle cx="3" cy="3" r="3"></circle></g>
<g transform="translate(352,288) scale(5.4933333333333)"><circle cx="3" cy="3" r="3"></circle></g>
<g transform="translate(384,288) scale(5.4933333333333)"><circle cx="3" cy="3" r="3"></circle></g>
<g transform="translate(416,288) scale(5.4933333333333)"><circle cx="3" cy="3" r="3"></circle></g>
<g transform="translate(544,288) scale(5.4933333333333)"><circle cx="3" cy="3" r="3"></circle></g>
<g transform="translate(576,288) scale(5.4933333333333)"><circle cx="3" cy="3" r="3"></circle></g>
<g transform="translate(128,320) scale(5.4933333333333)"><circle cx="3" cy="3" r="3"></circle></g>
<g transform="translate(160,320) scale(5.4933333333333)"><circle cx="3" cy="3" r="3"></circle></g>
<g transform="translate(192,320) scale(5.4933333333333)"><circle cx="3" cy="3" r="3"></circle></g>
<g transform="translate(256,320) scale(5.4933333333333)"><circle cx="3" cy="3" r="3"></circle></g>
<g transform="translate(320,320) scale(5.4933333333333)"><circle cx="3" cy="3" r="3"></circle></g>
<g transform="translate(352,320) scale(5.4933333333333)"><circle cx="3" cy="3" r="3"></circle></g>
<g transform="translate(512,320) scale(5.4933333333333)"><circle cx="3" cy="3" r="3"></circle></g>
<g transform="translate(608,320) scale(5.4933333333333)"><circle cx="3" cy="3" r="3"></circle></g>
<g transform="translate(640,320) scale(5.4933333333333)"><circle cx="3" cy="3" r="3"></circle></g>
<g transform="translate(672,320) scale(5.4933333333333)"><circle cx="3" cy="3" r="3"></circle></g>
<g transform="translate(768,320) scale(5.4933333333333)"><circle cx="3" cy="3" r="3"></circle></g>
<g transform="translate(800,320) scale(5.4933333333333)"><circle cx="3" cy="3" r="3"></circle></g>
<g transform="translate(832,320) scale(5.4933333333333)"><circle cx="3" cy="3" r="3"></circle></g>
<g transform="translate(64,352) scale(5.4933333333333)"><circle cx="3" cy="3" r="3"></circle></g>
<g transform="translate(128,352) scale(5.4933333333333)"><circle cx="3" cy="3" r="3"></circle></g>
<g transform="translate(192,352) scale(5.4933333333333)"><circle cx="3" cy="3" r="3"></circle></g>
<g transform="translate(224,352) scale(5.4933333333333)"><circle cx="3" cy="3" r="3"></circle></g>
<g transform="translate(416,352) scale(5.4933333333333)"><circle cx="3" cy="3" r="3"></circle></g>
<g transform="translate(448,352) scale(5.4933333333333)"><circle cx="3" cy="3" r="3"></circle></g>
<g transform="translate(512,352) scale(5.4933333333333)"><circle cx="3" cy="3" r="3"></circle></g>
<g transform="translate(544,352) scale(5.4933333333333)"><circle cx="3" cy="3" r="3"></circle></g>
<g transform="translate(576,352) scale(5.4933333333333)"><circle cx="3" cy="3" r="3"></circle></g>
<g transform="translate(672,352) scale(5.4933333333333)"><circle cx="3" cy="3" r="3"></circle></g>
<g transform="translate(736,352) scale(5.4933333333333)"><circle cx="3" cy="3" r="3"></circle></g>
<g transform="translate(96,384) scale(5.4933333333333)"><circle cx="3" cy="3" r="3"></circle></g>
<g transform="translate(192,384) scale(5.4933333333333)"><circle cx="3" cy="3" r="3"></circle></g>
<g transform="translate(224,384) scale(5.4933333333333)"><circle cx="3" cy="3" r="3"></circle></g>
<g transform="translate(256,384) scale(5.4933333333333)"><circle cx="3" cy="3" r="3"></circle></g>
<g transform="translate(320,384) scale(5.4933333333333)"><circle cx="3" cy="3" r="3"></circle></g>
<g transform="translate(352,384) scale(5.4933333333333)"><circle cx="3" cy="3" r="3"></circle></g>
<g transform="translate(384,384) scale(5.4933333333333)"><circle cx="3" cy="3" r="3"></circle></g>
<g transform="translate(416,384) scale(5.4933333333333)"><circle cx="3" cy="3" r="3"></circle></g>
<g transform="translate(480,384) scale(5.4933333333333)"><circle cx="3" cy="3" r="3"></circle></g>
<g transform="translate(512,384) scale(5.4933333333333)"><circle cx="3" cy="3" r="3"></circle></g>
<g transform="translate(544,384) scale(5.4933333333333)"><circle cx="3" cy="3" r="3"></circle></g>
<g transform="translate(576,384) scale(5.4933333333333)"><circle cx="3" cy="3" r="3"></circle></g>
<g transform="translate(640,384) scale(5.4933333333333)"><circle cx="3" cy="3" r="3"></circle></g>
<g transform="translate(672,384) scale(5.4933333333333)"><circle cx="3" cy="3" r="3"></circle></g>
<g transform="translate(800,384) scale(5.4933333333333)"><circle cx="3" cy="3" r="3"></circle></g>
<g transform="translate(832,384) scale(5.4933333333333)"><circle cx="3" cy="3" r="3"></circle></g>
<g transform="translate(64,416) scale(5.4933333333333)"><circle cx="3" cy="3" r="3"></circle></g>
<g transform="translate(96,416) scale(5.4933333333333)"><circle cx="3" cy="3" r="3"></circle></g>
<g transform="translate(128,416) scale(5.4933333333333)"><circle cx="3" cy="3" r="3"></circle></g>
<g transform="translate(160,416) scale(5.4933333333333)"><circle cx="3" cy="3" r="3"></circle></g>
<g transform="translate(352,416) scale(5.4933333333333)"><circle cx="3" cy="3" r="3"></circle></g>
<g transform="translate(544,416) scale(5.4933333333333)"><circle cx="3" cy="3" r="3"></circle></g>
<g transform="translate(576,416) scale(5.4933333333333)"><circle cx="3" cy="3" r="3"></circle></g>
<g transform="translate(608,416) scale(5.4933333333333)"><circle cx="3" cy="3" r="3"></circle></g>
<g transform="translate(640,416) scale(5.4933333333333)"><circle cx="3" cy="3" r="3"></circle></g>
<g transform="translate(672,416) scale(5.4933333333333)"><circle cx="3" cy="3" r="3"></circle></g>
<g transform="translate(736,416) scale(5.4933333333333)"><circle cx="3" cy="3" r="3"></circle></g>
<g transform="translate(800,416) scale(5.4933333333333)"><circle cx="3" cy="3" r="3"></circle></g>
<g transform="translate(64,448) scale(5.4933333333333)"><circle cx="3" cy="3" r="3"></circle></g>
<g transform="translate(128,448) scale(5.4933333333333)"><circle cx="3" cy="3" r="3"></circle></g>
<g transform="translate(160,448) scale(5.4933333333333)"><circle cx="3" cy="3" r="3"></circle></g>
<g transform="translate(256,448) scale(5.4933333333333)"><circle cx="3" cy="3" r="3"></circle></g>
<g transform="translate(288,448) scale(5.4933333333333)"><circle cx="3" cy="3" r="3"></circle></g>
<g transform="translate(320,448) scale(5.4933333333333)"><circle cx="3" cy="3" r="3"></circle></g>
<g transform="translate(416,448) scale(5.4933333333333)"><circle cx="3" cy="3" r="3"></circle></g>
<g transform="translate(448,448) scale(5.4933333333333)"><circle cx="3" cy="3" r="3"></circle></g>
<g transform="translate(512,448) scale(5.4933333333333)"><circle cx="3" cy="3" r="3"></circle></g>
<g transform="translate(608,448) scale(5.4933333333333)"><circle cx="3" cy="3" r="3"></circle></g>
<g transform="translate(640,448) scale(5.4933333333333)"><circle cx="3" cy="3" r="3"></circle></g>
<g transform="translate(704,448) scale(5.4933333333333)"><circle cx="3" cy="3" r="3"></circle></g>
<g transform="translate(736,448) scale(5.4933333333333)"><circle cx="3" cy="3" r="3"></circle></g>
<g transform="translate(768,448) scale(5.4933333333333)"><circle cx="3" cy="3" r="3"></circle></g>
<g transform="translate(64,480) scale(5.4933333333333)"><circle cx="3" cy="3" r="3"></circle></g>
<g transform="translate(96,480) scale(5.4933333333333)"><circle cx="3" cy="3" r="3"></circle></g>
<g transform="translate(128,480) scale(5.4933333333333)"><circle cx="3" cy="3" r="3"></circle></g>
<g transform="translate(192,480) scale(5.4933333333333)"><circle cx="3" cy="3" r="3"></circle></g>
<g transform="translate(224,480) scale(5.4933333333333)"><circle cx="3" cy="3" r="3"></circle></g>
<g transform="translate(288,480) scale(5.4933333333333)"><circle cx="3" cy="3" r="3"></circle></g>
<g transform="translate(416,480) scale(5.4933333333333)"><circle cx="3" cy="3" r="3"></circle></g>
<g transform="translate(448,480) scale(5.4933333333333)"><circle cx="3" cy="3" r="3"></circle></g>
<g transform="translate(544,480) scale(5.4933333333333)"><circle cx="3" cy="3" r="3"></circle></g>
<g transform="translate(608,480) scale(5.4933333333333)"><circle cx="3" cy="3" r="3"></circle></g>
<g transform="translate(672,480) scale(5.4933333333333)"><circle cx="3" cy="3" r="3"></circle></g>
<g transform="translate(768,480) scale(5.4933333333333)"><circle cx="3" cy="3" r="3"></circle></g>
<g transform="translate(64,512) scale(5.4933333333333)"><circle cx="3" cy="3" r="3"></circle></g>
<g transform="translate(160,512) scale(5.4933333333333)"><circle cx="3" cy="3" r="3"></circle></g>
<g transform="translate(192,512) scale(5.4933333333333)"><circle cx="3" cy="3" r="3"></circle></g>
<g transform="translate(256,512) scale(5.4933333333333)"><circle cx="3" cy="3" r="3"></circle></g>
<g transform="translate(544,512) scale(5.4933333333333)"><circle cx="3" cy="3" r="3"></circle></g>
<g transform="translate(640,512) scale(5.4933333333333)"><circle cx="3" cy="3" r="3"></circle></g>
<g transform="translate(736,512) scale(5.4933333333333)"><circle cx="3" cy="3" r="3"></circle></g>
<g transform="translate(768,512) scale(5.4933333333333)"><circle cx="3" cy="3" r="3"></circle></g>
<g transform="translate(800,512) scale(5.4933333333333)"><circle cx="3" cy="3" r="3"></circle></g>
<g transform="translate(832,512) scale(5.4933333333333)"><circle cx="3" cy="3" r="3"></circle></g>
<g transform="translate(64,544) scale(5.4933333333333)"><circle cx="3" cy="3" r="3"></circle></g>
<g transform="translate(128,544) scale(5.4933333333333)"><circle cx="3" cy="3" r="3"></circle></g>
<g transform="translate(192,544) scale(5.4933333333333)"><circle cx="3" cy="3" r="3"></circle></g>
<g transform="translate(224,544) scale(5.4933333333333)"><circle cx="3" cy="3" r="3"></circle></g>
<g transform="translate(320,544) scale(5.4933333333333)"><circle cx="3" cy="3" r="3"></circle></g>
<g transform="translate(352,544) scale(5.4933333333333)"><circle cx="3" cy="3" r="3"></circle></g>
<g transform="translate(448,544) scale(5.4933333333333)"><circle cx="3" cy="3" r="3"></circle></g>
<g transform="translate(512,544) scale(5.4933333333333)"><circle cx="3" cy="3" r="3"></circle></g>
<g transform="translate(544,544) scale(5.4933333333333)"><circle cx="3" cy="3" r="3"></circle></g>
<g transform="translate(576,544) scale(5.4933333333333)"><circle cx="3" cy="3" r="3"></circle></g>
<g transform="translate(672,544) scale(5.4933333333333)"><circle cx="3" cy="3" r="3"></circle></g>
<g transform="translate(704,544) scale(5.4933333333333)"><circle cx="3" cy="3" r="3"></circle></g>
<g transform="translate(800,544) scale(5.4933333333333)"><circle cx="3" cy="3" r="3"></circle></g>
<g transform="translate(832,544) scale(5.4933333333333)"><circle cx="3" cy="3" r="3"></circle></g>
<g transform="translate(64,576) scale(5.4933333333333)"><circle cx="3" cy="3" r="3"></circle></g>
<g transform="translate(192,576) scale(5.4933333333333)"><circle cx="3" cy="3" r="3"></circle></g>
<g transform="translate(256,576) scale(5.4933333333333)"><circle cx="3" cy="3" r="3"></circle></g>
<g transform="translate(320,576) scale(5.4933333333333)"><circle cx="3" cy="3" r="3"></circle></g>
<g transform="translate(352,576) scale(5.4933333333333)"><circle cx="3" cy="3" r="3"></circle></g>
<g transform="translate(384,576) scale(5.4933333333333)"><circle cx="3" cy="3" r="3"></circle></g>
<g transform="translate(416,576) scale(5.4933333333333)"><circle cx="3" cy="3" r="3"></circle></g>
<g transform="translate(448,576) scale(5.4933333333333)"><circle cx="3" cy="3" r="3"></circle></g>
<g transform="translate(480,576) scale(5.4933333333333)"><circle cx="3" cy="3" r="3"></circle></g>
<g transform="translate(544,576) scale(5.4933333333333)"><circle cx="3" cy="3" r="3"></circle></g>
<g transform="translate(576,576) scale(5.4933333333333)"><circle cx="3" cy="3" r="3"></circle></g>
<g transform="translate(608,576) scale(5.4933333333333)"><circle cx="3" cy="3" r="3"></circle></g>
<g transform="translate(640,576) scale(5.4933333333333)"><circle cx="3" cy="3" r="3"></circle></g>
<g transform="translate(672,576) scale(5.4933333333333)"><circle cx="3" cy="3" r="3"></circle></g>
<g transform="translate(704,576) scale(5.4933333333333)"><circle cx="3" cy="3" r="3"></circle></g>
<g transform="translate(736,576) scale(5.4933333333333)"><circle cx="3" cy="3" r="3"></circle></g>
<g transform="translate(768,576) scale(5.4933333333333)"><circle cx="3" cy="3" r="3"></circle></g>
<g transform="translate(832,576) scale(5.4933333333333)"><circle cx="3" cy="3" r="3"></circle></g>
<g transform="translate(320,608) scale(5.4933333333333)"><circle cx="3" cy="3" r="3"></circle></g>
<g transform="translate(352,608) scale(5.4933333333333)"><circle cx="3" cy="3" r="3"></circle></g>
<g transform="translate(384,608) scale(5.4933333333333)"><circle cx="3" cy="3" r="3"></circle></g>
<g transform="translate(416,608) scale(5.4933333333333)"><circle cx="3" cy="3" r="3"></circle></g>
<g transform="translate(480,608) scale(5.4933333333333)"><circle cx="3" cy="3" r="3"></circle></g>
<g transform="translate(544,608) scale(5.4933333333333)"><circle cx="3" cy="3" r="3"></circle></g>
<g transform="translate(576,608) scale(5.4933333333333)"><circle cx="3" cy="3" r="3"></circle></g>
<g transform="translate(704,608) scale(5.4933333333333)"><circle cx="3" cy="3" r="3"></circle></g>
<g transform="translate(768,608) scale(5.4933333333333)"><circle cx="3" cy="3" r="3"></circle></g>
<g transform="translate(352,640) scale(5.4933333333333)"><circle cx="3" cy="3" r="3"></circle></g>
<g transform="translate(416,640) scale(5.4933333333333)"><circle cx="3" cy="3" r="3"></circle></g>
<g transform="translate(480,640) scale(5.4933333333333)"><circle cx="3" cy="3" r="3"></circle></g>
<g transform="translate(544,640) scale(5.4933333333333)"><circle cx="3" cy="3" r="3"></circle></g>
<g transform="translate(576,640) scale(5.4933333333333)"><circle cx="3" cy="3" r="3"></circle></g>
<g transform="translate(640,640) scale(5.4933333333333)"><circle cx="3" cy="3" r="3"></circle></g>
<g transform="translate(704,640) scale(5.4933333333333)"><circle cx="3" cy="3" r="3"></circle></g>
<g transform="translate(800,640) scale(5.4933333333333)"><circle cx="3" cy="3" r="3"></circle></g>
<g transform="translate(832,640) scale(5.4933333333333)"><circle cx="3" cy="3" r="3"></circle></g>
<g transform="translate(352,672) scale(5.4933333333333)"><circle cx="3" cy="3" r="3"></circle></g>
<g transform="translate(384,672) scale(5.4933333333333)"><circle cx="3" cy="3" r="3"></circle></g>
<g transform="translate(448,672) scale(5.4933333333333)"><circle cx="3" cy="3" r="3"></circle></g>
<g transform="translate(480,672) scale(5.4933333333333)"><circle cx="3" cy="3" r="3"></circle></g>
<g transform="translate(576,672) scale(5.4933333333333)"><circle cx="3" cy="3" r="3"></circle></g>
<g transform="translate(704,672) scale(5.4933333333333)"><circle cx="3" cy="3" r="3"></circle></g>
<g transform="translate(320,704) scale(5.4933333333333)"><circle cx="3" cy="3" r="3"></circle></g>
<g transform="translate(352,704) scale(5.4933333333333)"><circle cx="3" cy="3" r="3"></circle></g>
<g transform="translate(448,704) scale(5.4933333333333)"><circle cx="3" cy="3" r="3"></circle></g>
<g transform="translate(544,704) scale(5.4933333333333)"><circle cx="3" cy="3" r="3"></circle></g>
<g transform="translate(576,704) scale(5.4933333333333)"><circle cx="3" cy="3" r="3"></circle></g>
<g transform="translate(608,704) scale(5.4933333333333)"><circle cx="3" cy="3" r="3"></circle></g>
<g transform="translate(640,704) scale(5.4933333333333)"><circle cx="3" cy="3" r="3"></circle></g>
<g transform="translate(672,704) scale(5.4933333333333)"><circle cx="3" cy="3" r="3"></circle></g>
<g transform="translate(704,704) scale(5.4933333333333)"><circle cx="3" cy="3" r="3"></circle></g>
<g transform="translate(768,704) scale(5.4933333333333)"><circle cx="3" cy="3" r="3"></circle></g>
<g transform="translate(800,704) scale(5.4933333333333)"><circle cx="3" cy="3" r="3"></circle></g>
<g transform="translate(320,736) scale(5.4933333333333)"><circle cx="3" cy="3" r="3"></circle></g>
<g transform="translate(384,736) scale(5.4933333333333)"><circle cx="3" cy="3" r="3"></circle></g>
<g transform="translate(448,736) scale(5.4933333333333)"><circle cx="3" cy="3" r="3"></circle></g>
<g transform="translate(480,736) scale(5.4933333333333)"><circle cx="3" cy="3" r="3"></circle></g>
<g transform="translate(576,736) scale(5.4933333333333)"><circle cx="3" cy="3" r="3"></circle></g>
<g transform="translate(608,736) scale(5.4933333333333)"><circle cx="3" cy="3" r="3"></circle></g>
<g transform="translate(640,736) scale(5.4933333333333)"><circle cx="3" cy="3" r="3"></circle></g>
<g transform="translate(736,736) scale(5.4933333333333)"><circle cx="3" cy="3" r="3"></circle></g>
<g transform="translate(832,736) scale(5.4933333333333)"><circle cx="3" cy="3" r="3"></circle></g>
<g transform="translate(320,768) scale(5.4933333333333)"><circle cx="3" cy="3" r="3"></circle></g>
<g transform="translate(416,768) scale(5.4933333333333)"><circle cx="3" cy="3" r="3"></circle></g>
<g transform="translate(448,768) scale(5.4933333333333)"><circle cx="3" cy="3" r="3"></circle></g>
<g transform="translate(480,768) scale(5.4933333333333)"><circle cx="3" cy="3" r="3"></circle></g>
<g transform="translate(576,768) scale(5.4933333333333)"><circle cx="3" cy="3" r="3"></circle></g>
<g transform="translate(672,768) scale(5.4933333333333)"><circle cx="3" cy="3" r="3"></circle></g>
<g transform="translate(768,768) scale(5.4933333333333)"><circle cx="3" cy="3" r="3"></circle></g>
<g transform="translate(832,768) scale(5.4933333333333)"><circle cx="3" cy="3" r="3"></circle></g>
<g transform="translate(352,800) scale(5.4933333333333)"><circle cx="3" cy="3" r="3"></circle></g>
<g transform="translate(480,800) scale(5.4933333333333)"><circle cx="3" cy="3" r="3"></circle></g>
<g transform="translate(512,800) scale(5.4933333333333)"><circle cx="3" cy="3" r="3"></circle></g>
<g transform="translate(544,800) scale(5.4933333333333)"><circle cx="3" cy="3" r="3"></circle></g>
<g transform="translate(608,800) scale(5.4933333333333)"><circle cx="3" cy="3" r="3"></circle></g>
<g transform="translate(672,800) scale(5.4933333333333)"><circle cx="3" cy="3" r="3"></circle></g>
<g transform="translate(704,800) scale(5.4933333333333)"><circle cx="3" cy="3" r="3"></circle></g>
<g transform="translate(736,800) scale(5.4933333333333)"><circle cx="3" cy="3" r="3"></circle></g>
<g transform="translate(832,800) scale(5.4933333333333)"><circle cx="3" cy="3" r="3"></circle></g>
<g transform="translate(384,832) scale(5.4933333333333)"><circle cx="3" cy="3" r="3"></circle></g>
<g transform="translate(480,832) scale(5.4933333333333)"><circle cx="3" cy="3" r="3"></circle></g>
<g transform="translate(512,832) scale(5.4933333333333)"><circle cx="3" cy="3" r="3"></circle></g>
<g transform="translate(672,832) scale(5.4933333333333)"><circle cx="3" cy="3" r="3"></circle></g>
<g transform="translate(704,832) scale(5.4933333333333)"><circle cx="3" cy="3" r="3"></circle></g>
<g transform="translate(736,832) scale(5.4933333333333)"><circle cx="3" cy="3" r="3"></circle></g>
<g transform="translate(768,832) scale(5.4933333333333)"><circle cx="3" cy="3" r="3"></circle></g>
<g transform="translate(800,832) scale(5.4933333333333)"><circle cx="3" cy="3" r="3"></circle></g>
<g transform="translate(832,832) scale(5.4933333333333)"><circle cx="3" cy="3" r="3"></circle></g>
</g><g><g transform="translate(64,64)" fill="#000000"><g transform="scale(16)"><path d="M4.5,14h5.1C12,14,14,12,14,9.6V4.5C14,2,12,0,9.5,0H4.4C2,0,0,2,0,4.4v5.1C0,12,2,14,4.5,14z M12,4.8v4.4 c0,1.5-1.3,2.8-2.8,2.8H4.8C3.2,12,2,10.8,2,9.2V4.8C2,3.3,3.3,2,4.8,2h4.4C10.8,2,12,3.2,12,4.8z"></path></g></g>
<g transform="translate(640,64)" fill="#000000"><g transform="scale(16)"><path d="M4.5,14h5.1C12,14,14,12,14,9.6V4.5C14,2,12,0,9.5,0H4.4C2,0,0,2,0,4.4v5.1C0,12,2,14,4.5,14z M12,4.8v4.4 c0,1.5-1.3,2.8-2.8,2.8H4.8C3.2,12,2,10.8,2,9.2V4.8C2,3.3,3.3,2,4.8,2h4.4C10.8,2,12,3.2,12,4.8z"></path></g></g>
<g transform="translate(64,640)" fill="#000000"><g transform="scale(16)"><path d="M4.5,14h5.1C12,14,14,12,14,9.6V4.5C14,2,12,0,9.5,0H4.4C2,0,0,2,0,4.4v5.1C0,12,2,14,4.5,14z M12,4.8v4.4 c0,1.5-1.3,2.8-2.8,2.8H4.8C3.2,12,2,10.8,2,9.2V4.8C2,3.3,3.3,2,4.8,2h4.4C10.8,2,12,3.2,12,4.8z"></path></g></g>
<g transform="translate(128,128)" fill="#000000"><g transform="scale(16)"><path d="M6,1.7v2.7C6,5.2,5.2,6,4.3,6H1.7C0.7,6,0,5.3,0,4.3V1.7C0,0.8,0.8,0,1.7,0h2.7C5.3,0,6,0.7,6,1.7z"></path></g></g>
<g transform="translate(704,128)" fill="#000000"><g transform="scale(16)"><path d="M6,1.7v2.7C6,5.2,5.2,6,4.3,6H1.7C0.7,6,0,5.3,0,4.3V1.7C0,0.8,0.8,0,1.7,0h2.7C5.3,0,6,0.7,6,1.7z"></path></g></g>
<g transform="translate(128,704)" fill="#000000"><g transform="scale(16)"><path d="M6,1.7v2.7C6,5.2,5.2,6,4.3,6H1.7C0.7,6,0,5.3,0,4.3V1.7C0,0.8,0.8,0,1.7,0h2.7C5.3,0,6,0.7,6,1.7z"></path></g></g></g>
</svg>